<?xml version="1.0" encoding="UTF-8"?>
<svg width="465px" height="411px" viewBox="0 0 465 411" version="1.1" xmlns="http://www.w3.org/2000/svg" xmlns:xlink="http://www.w3.org/1999/xlink">
    <!-- Generator: Sketch 54.1 (76490) - https://sketchapp.com -->
    <title>3630160</title>
    <desc>Created with Sketch.</desc>
    <g id="Page-1" stroke="none" stroke-width="1" fill="none" fill-rule="evenodd">
        <g id="3630160" transform="translate(0.000000, -1.000000)">
            <path d="M211.107,404.25 C180.815,404.251 154.795,398.183 142.784,382.27 C110.109,338.979 140.854,285.078 142.939,281.534 C141.077,284.643 115.726,326.101 87.905,326.102 C80.127,326.102 72.156,322.861 64.451,314.637 C28.113,275.847 28.064,176.524 64.855,160.934 C100.399,145.872 126.758,128.27 112.245,128.27 C111.736,128.27 111.178,128.291 110.568,128.335 C110.162,128.365 109.756,128.379 109.353,128.379 C91.856,128.379 77.513,101.106 101.684,74.293 C101.684,74.293 151.486,17.624 217.466,17.624 C233.48,17.624 250.44,20.959 267.881,29.255 C355.903,71.12 283.127,109.232 296.227,109.232 C296.416,109.232 296.622,109.224 296.849,109.208 C305.804,108.574 334.788,88.309 364.22,88.309 C386.936,88.309 409.918,100.378 424.17,142.858 C456.889,240.377 436.131,293.966 370.805,301.62 C305.478,309.274 398.29,339.92 359.842,366.889 C335.056,384.274 266.061,404.248 211.107,404.25" id="Fill-4" fill="#D4DED8"></path>
            <path d="M198.964,189.814 C198.964,189.814 170.264,187.779 161.164,156.671 C152.065,125.563 120.175,99.081 115.041,87.651 C109.907,76.221 150.276,73.485 172.924,93.787 C195.572,114.088 213.274,166.478 198.964,189.814" id="Fill-5" fill="#302339"></path>
            <path d="M195.087,187.079 C193.967,185.91 192.826,181.934 191.099,175.916 C186.496,159.877 177.927,130.024 156.489,109.519 C141.499,95.18 132.269,89.254 127.165,86.808 C121.628,84.154 119.625,84.908 119.605,84.916 L119.41,84.456 C119.733,84.315 127.735,81.325 156.835,109.157 C178.371,129.756 186.963,159.694 191.579,175.778 C193.225,181.511 194.414,185.653 195.448,186.733 L195.087,187.079" id="Fill-6" fill="#FFFAD2"></path>
            <path d="M151.5,104.665 C151.12,104.665 150.698,104.335 150.386,104.056 C145.518,99.699 125.936,100.103 125.739,100.11 L125.727,99.61 C126.541,99.592 145.706,99.195 150.719,103.684 C151.236,104.146 151.489,104.195 151.546,104.152 C152.59,103.444 148.625,92.622 146.719,87.421 C145.576,84.302 144.926,82.513 144.871,82.029 L145.368,81.973 C145.419,82.42 146.239,84.658 147.188,87.25 C151.083,97.878 152.976,103.786 151.827,104.565 C151.725,104.635 151.614,104.665 151.5,104.665" id="Fill-7" fill="#FFFAD2"></path>
            <path d="M169.817,126.402 C169.486,126.402 169.094,126.263 168.633,125.984 C162.554,122.302 146.189,124.616 146.024,124.64 L145.953,124.145 C146.631,124.047 162.661,121.781 168.892,125.557 C169.46,125.9 169.868,125.986 170.106,125.814 C171.245,124.985 169.85,119.082 168.373,112.832 C166.704,105.771 164.813,97.767 165.187,92.366 L165.686,92.4 C165.317,97.726 167.199,105.69 168.859,112.717 C170.742,120.686 171.742,125.242 170.4,126.218 C170.231,126.341 170.038,126.402 169.817,126.402" id="Fill-8" fill="#FFFAD2"></path>
            <path d="M183.07,152.309 C182.605,152.309 182.235,151.762 181.989,151.332 C178.345,144.952 156.819,140.036 156.602,139.986 L156.712,139.499 C157.606,139.701 178.671,144.514 182.423,151.083 C182.852,151.834 183.071,151.811 183.095,151.806 C184.043,151.582 184.427,144.756 184.798,138.155 C185.294,129.34 185.911,118.37 188.059,112.359 L188.529,112.527 C186.406,118.47 185.792,129.4 185.297,138.184 C184.788,147.251 184.463,151.997 183.209,152.292 L183.07,152.309" id="Fill-9" fill="#FFFAD2"></path>
            <path d="M190.255,176.697 C187.865,176.697 182.991,173.707 177.454,170.31 C172.321,167.161 167.013,163.905 163.457,162.935 L163.588,162.452 C167.214,163.441 172.552,166.716 177.715,169.884 C183.379,173.358 189.237,176.949 190.872,176.073 C191.149,175.924 191.291,175.63 191.307,175.173 C191.512,169.375 200.426,148.826 200.805,147.954 L201.263,148.153 C201.171,148.366 192.008,169.487 191.807,175.191 C191.784,175.832 191.549,176.276 191.108,176.513 C190.876,176.638 190.59,176.697 190.255,176.697" id="Fill-10" fill="#FFFAD2"></path>
            <path d="M209.416,232.276 C209.416,232.276 235.894,221.018 234.384,188.642 C232.873,156.266 254.418,120.853 255.556,108.374 C256.694,95.896 217.629,106.437 202.814,133 C187.999,159.562 188.295,214.861 209.416,232.276" id="Fill-11" fill="#CB8C5D"></path>
            <path d="M212.193,228.428 L211.739,228.219 C212.366,226.86 212.144,222.557 211.835,216.601 C210.97,199.89 209.36,168.785 223.027,142.303 C241.51,106.488 250.022,106.743 250.387,106.774 L250.351,107.272 C250.282,107.28 241.709,107.193 223.471,142.532 C209.866,168.894 211.472,199.911 212.334,216.574 C212.658,222.827 212.872,226.958 212.193,228.428" id="Fill-12" fill="#FFFAD2"></path>
            <path d="M226.419,136.353 L226.27,136.332 C224.929,135.969 224.798,129.768 225.025,118.451 C225.08,115.69 225.128,113.307 225.031,112.866 L225.519,112.759 C225.624,113.234 225.591,115.138 225.525,118.461 C225.414,123.998 225.183,135.52 226.4,135.85 C226.47,135.864 226.691,135.744 227.03,135.138 C230.313,129.263 248.563,123.405 249.339,123.159 L249.491,123.635 C249.303,123.695 230.653,129.679 227.466,135.382 C227.227,135.81 226.868,136.353 226.419,136.353" id="Fill-13" fill="#FFFAD2"></path>
            <path d="M216.026,162.89 C215.932,162.89 215.839,162.876 215.747,162.848 C214.16,162.36 213.625,157.727 212.813,149.579 C212.099,142.394 211.289,134.25 209.208,129.334 L209.669,129.14 C211.779,134.125 212.593,142.309 213.311,149.529 C213.947,155.92 214.548,161.956 215.894,162.37 C216.176,162.454 216.533,162.241 216.958,161.731 C221.623,156.135 237.518,153.065 238.191,152.937 L238.285,153.428 C238.121,153.459 221.893,156.592 217.342,162.052 C216.874,162.613 216.44,162.89 216.026,162.89" id="Fill-14" fill="#FFFAD2"></path>
            <path d="M212.058,191.673 C210.778,191.673 208.933,187.297 205.551,179.007 C202.228,170.862 198.092,160.725 194.151,155.796 L194.542,155.483 C198.527,160.469 202.678,170.644 206.014,178.818 C208.492,184.893 211.054,191.173 212.041,191.173 L212.063,191.172 C212.087,191.17 212.301,191.125 212.463,190.271 C213.875,182.838 232.229,171.437 233.011,170.955 L233.272,171.38 C233.084,171.497 214.326,183.147 212.955,190.365 C212.853,190.899 212.655,191.616 212.113,191.67 L212.058,191.673" id="Fill-15" fill="#FFFAD2"></path>
            <path d="M212.736,217.16 L212.52,217.143 C212.026,217.063 211.659,216.719 211.429,216.12 C209.383,210.792 193.851,193.798 193.694,193.627 L194.063,193.289 C194.705,193.99 209.816,210.524 211.896,215.94 C212.06,216.367 212.29,216.599 212.6,216.649 C214.418,216.938 218.802,211.646 223.029,206.519 C226.881,201.845 230.865,197.012 233.972,194.897 L234.253,195.311 C231.205,197.385 227.245,202.19 223.415,206.837 C218.86,212.362 214.906,217.16 212.736,217.16" id="Fill-16" fill="#FFFAD2"></path>
            <path d="M133.581,330.228 C133.581,330.228 110.584,312.937 83.309,330.447 C56.034,347.956 14.592,347.024 3.219,352.283 C-8.154,357.543 20.521,386.089 50.932,385.623 C81.344,385.157 129.072,357.228 133.581,330.228" id="Fill-17" fill="#CB8C5D"></path>
            <path d="M36.57,363.782 C7.775,363.782 4.557,357.845 4.421,357.561 L4.871,357.342 C4.909,357.417 9.164,364.869 48.849,362.969 C78.479,361.556 104.53,344.645 118.525,335.559 C123.777,332.149 127.248,329.896 128.86,329.749 L128.906,330.247 C127.416,330.383 123.801,332.73 118.797,335.979 C104.763,345.09 78.638,362.049 48.872,363.469 C44.325,363.686 40.24,363.782 36.57,363.782" id="Fill-18" fill="#FFFAD2"></path>
            <path d="M22.384,376.464 L22.046,376.095 C22.405,375.767 24.069,374.842 26.979,373.236 C31.829,370.562 41.92,364.996 41.597,363.776 C41.579,363.708 41.366,363.589 40.665,363.588 L40.589,363.589 C33.829,363.589 19.729,350.813 19.13,350.267 L19.467,349.897 C19.612,350.029 34.021,363.089 40.587,363.089 L40.754,363.087 C41.286,363.087 41.951,363.159 42.081,363.648 C42.436,364.99 37.133,368.208 27.221,373.675 C24.804,375.008 22.716,376.159 22.384,376.464" id="Fill-19" fill="#FFFAD2"></path>
            <path d="M44.56,381.921 L44.16,381.62 C47.422,377.298 54.1,372.498 59.991,368.263 C65.206,364.515 70.131,360.975 69.815,359.603 C69.749,359.315 69.384,359.113 68.73,359 C61.55,357.762 50.938,345.537 50.49,345.018 L50.869,344.691 C50.977,344.817 61.812,357.3 68.815,358.508 C69.699,358.66 70.185,358.981 70.302,359.49 C70.675,361.107 66.931,363.891 60.283,368.669 C54.42,372.884 47.775,377.66 44.56,381.921" id="Fill-20" fill="#FFFAD2"></path>
            <path d="M75.004,381.717 L74.539,381.535 C76.86,375.589 83.592,366.903 89,359.925 C93.051,354.699 97.239,349.296 96.669,348.505 C96.655,348.485 96.51,348.322 95.688,348.609 C88.543,351.104 69.49,340.922 68.683,340.486 L68.92,340.047 C69.116,340.151 88.589,350.562 95.523,348.137 C96.038,347.96 96.757,347.771 97.075,348.213 C97.828,349.258 94.959,353.053 89.396,360.231 C84.007,367.185 77.3,375.838 75.004,381.717" id="Fill-21" fill="#FFFAD2"></path>
            <path d="M107.986,363.181 L107.51,363.03 C107.795,362.123 114.548,340.767 118.197,336.255 C118.484,335.899 118.569,335.584 118.458,335.291 C117.8,333.555 111.023,332.425 104.469,331.332 C98.495,330.335 92.316,329.305 88.931,327.674 L89.148,327.223 C92.469,328.823 98.611,329.848 104.551,330.839 C111.856,332.057 118.165,333.109 118.926,335.113 C119.103,335.581 118.989,336.071 118.585,336.569 C114.996,341.007 108.056,362.959 107.986,363.181" id="Fill-22" fill="#FFFAD2"></path>
            <path d="M277.931,347.855 C277.931,347.855 253.356,332.892 227.921,352.98 C202.485,373.068 161.151,376.187 150.345,382.531 C139.54,388.875 170.865,414.486 201.085,411.054 C231.306,407.621 276.08,375.167 277.931,347.855" id="Fill-23" fill="#62626C"></path>
            <path d="M170.291,391.506 C154.632,391.506 152.187,387.881 152.056,387.665 L152.484,387.405 L152.27,387.535 L152.482,387.403 C152.528,387.475 157.491,394.467 196.8,388.711 C226.15,384.412 250.426,365.039 263.468,354.631 C268.362,350.725 271.596,348.144 273.186,347.84 L273.28,348.33 C271.811,348.611 268.442,351.3 263.779,355.021 C250.701,365.459 226.357,384.887 196.872,389.205 C185.308,390.899 176.693,391.506 170.291,391.506" id="Fill-24" fill="#FFFAD2"></path>
            <path d="M171.779,404.725 L171.407,404.391 C171.732,404.028 173.297,402.946 176.037,401.065 C180.602,397.93 190.103,391.404 189.662,390.223 C189.637,390.155 189.408,390.049 188.716,390.125 C182.04,390.886 166.635,379.458 165.983,378.971 L166.282,378.57 C166.44,378.688 182.18,390.338 188.661,389.629 C189.2,389.567 189.943,389.545 190.13,390.048 C190.616,391.349 185.651,395.068 176.32,401.478 C174.044,403.04 172.08,404.39 171.779,404.725" id="Fill-25" fill="#FFFAD2"></path>
            <path d="M194.381,407.992 L193.955,407.73 C196.779,403.111 202.956,397.683 208.406,392.893 C213.229,388.652 217.786,384.648 217.337,383.313 C217.244,383.035 216.861,382.869 216.199,382.82 C208.933,382.289 197.178,371.158 196.682,370.685 L197.026,370.323 C197.147,370.438 209.147,381.804 216.235,382.322 C217.13,382.388 217.645,382.659 217.812,383.154 C218.34,384.728 214.886,387.862 208.736,393.268 C203.313,398.034 197.166,403.437 194.381,407.992" id="Fill-26" fill="#FFFAD2"></path>
            <path d="M224.661,404.815 L224.18,404.681 C225.91,398.536 231.762,389.235 236.463,381.762 C239.983,376.166 243.624,370.38 242.98,369.648 C242.964,369.63 242.804,369.482 242.015,369.848 C235.15,373.034 215.19,364.753 214.344,364.399 L214.538,363.938 C214.742,364.023 235.139,372.481 241.804,369.395 C242.298,369.165 242.994,368.909 243.355,369.318 C244.206,370.285 241.723,374.341 236.887,382.028 C232.202,389.475 226.372,398.741 224.661,404.815" id="Fill-27" fill="#FFFAD2"></path>
            <path d="M255.677,383.148 L255.187,383.045 C255.383,382.114 260.018,360.201 263.209,355.355 C263.461,354.974 263.515,354.651 263.375,354.37 C262.55,352.707 255.694,352.243 249.064,351.795 C243.021,351.387 236.773,350.964 233.245,349.671 L233.417,349.202 C236.878,350.47 243.09,350.89 249.098,351.296 C256.488,351.796 262.87,352.228 263.823,354.148 C264.046,354.597 263.979,355.095 263.627,355.631 C260.487,360.397 255.724,382.921 255.677,383.148" id="Fill-28" fill="#FFFAD2"></path>
            <path d="M335.165,347.855 C335.165,347.855 359.74,332.892 385.176,352.98 C410.611,373.068 451.946,376.187 462.751,382.531 C473.556,388.875 442.232,414.486 412.011,411.054 C381.79,407.621 337.016,375.167 335.165,347.855" id="Fill-29" fill="#302339"></path>
            <path d="M442.806,391.506 C436.402,391.506 427.792,390.899 416.225,389.205 C386.738,384.887 362.395,365.458 349.315,355.021 C344.653,351.3 341.285,348.611 339.816,348.33 L339.91,347.84 C341.501,348.144 344.733,350.724 349.628,354.63 C362.669,365.038 386.944,384.412 416.297,388.711 C455.607,394.467 460.569,387.475 460.614,387.403 L461.04,387.665 C460.909,387.881 458.461,391.506 442.806,391.506" id="Fill-30" fill="#FFFAD2"></path>
            <path d="M441.318,404.725 C441.017,404.39 439.054,403.041 436.78,401.479 C427.446,395.069 422.48,391.349 422.966,390.048 C423.154,389.545 423.892,389.566 424.436,389.629 C430.931,390.339 446.655,378.688 446.813,378.57 L447.112,378.971 C446.461,379.458 431.052,390.891 424.38,390.125 C423.697,390.049 423.46,390.154 423.435,390.223 C422.994,391.404 432.496,397.932 437.063,401.067 C439.8,402.947 441.364,404.028 441.689,404.391 L441.318,404.725" id="Fill-31" fill="#FFFAD2"></path>
            <path d="M418.716,407.992 C415.931,403.438 409.784,398.034 404.36,393.268 C398.21,387.862 394.756,384.728 395.285,383.154 C395.451,382.659 395.967,382.388 396.86,382.322 C403.95,381.804 415.949,370.438 416.069,370.323 L416.415,370.685 C415.918,371.158 404.164,382.289 396.897,382.82 C396.235,382.869 395.853,383.035 395.759,383.313 C395.311,384.648 399.866,388.653 404.69,392.893 C410.141,397.683 416.318,403.111 419.142,407.73 L418.716,407.992" id="Fill-32" fill="#FFFAD2"></path>
            <path d="M388.436,404.815 C386.725,398.741 380.895,389.474 376.209,382.027 C371.373,374.341 368.89,370.284 369.74,369.318 C370.103,368.909 370.798,369.165 371.292,369.395 C377.96,372.486 398.353,364.023 398.559,363.938 L398.752,364.399 C397.905,364.753 377.948,373.033 371.081,369.848 C370.291,369.481 370.132,369.629 370.115,369.648 C369.472,370.38 373.112,376.166 376.633,381.762 C381.335,389.235 387.186,398.536 388.916,404.681 L388.436,404.815" id="Fill-33" fill="#FFFAD2"></path>
            <path d="M357.42,383.148 C357.373,382.921 352.608,360.397 349.47,355.631 C349.117,355.095 349.051,354.597 349.273,354.148 C350.227,352.228 356.608,351.796 363.998,351.296 C370.006,350.89 376.218,350.47 379.679,349.202 L379.851,349.671 C376.322,350.964 370.074,351.387 364.032,351.795 C357.402,352.243 350.547,352.707 349.722,354.37 C349.582,354.651 349.636,354.974 349.888,355.355 C353.078,360.201 357.714,382.114 357.91,383.045 L357.42,383.148" id="Fill-34" fill="#FFFAD2"></path>
            <path d="M318.584,162.837 C318.584,162.837 346.807,168.43 363.776,140.815 C380.746,113.201 418.483,96.05 426.445,86.375 C434.408,76.7 396.183,63.432 368.989,77.054 C341.795,90.676 310.923,136.556 318.584,162.837" id="Fill-35" fill="#587877"></path>
            <path d="M323.045,161.219 L322.787,160.79 C324.07,160.021 326.308,156.337 329.404,151.239 C338.093,136.939 354.265,110.32 380.463,96.118 C415.868,76.927 422.796,81.921 423.072,82.143 L422.762,82.535 C422.744,82.522 421.013,81.266 414.971,82.369 C409.403,83.386 398.938,86.672 380.701,96.558 C354.621,110.695 338.495,137.239 329.832,151.499 C326.581,156.851 324.434,160.386 323.045,161.219" id="Fill-36" fill="#FFFAD2"></path>
            <path d="M412.845,95.578 C412.656,95.521 393.875,89.974 388.027,92.895 C387.541,93.139 386.853,93.417 386.504,93.007 C385.601,91.953 388.981,86.752 395.537,77.524 C397.136,75.274 398.517,73.33 398.684,72.912 L399.148,73.097 C398.968,73.549 397.869,75.104 395.944,77.814 C392.736,82.329 386.062,91.724 386.883,92.682 C386.929,92.735 387.179,92.76 387.805,92.448 C393.818,89.438 412.207,94.865 412.987,95.098 L412.845,95.578" id="Fill-37" fill="#FFFAD2"></path>
            <path d="M386.816,113.901 C386.664,113.834 371.487,107.293 364.65,109.245 C363.786,109.492 363.21,109.412 362.885,109.005 C361.847,107.709 364.011,103.578 367.926,96.386 C371.378,90.045 375.29,82.857 376.337,77.623 L376.827,77.72 C375.766,83.029 371.834,90.252 368.364,96.625 C365.295,102.266 362.395,107.594 363.274,108.692 C363.458,108.922 363.875,108.946 364.514,108.764 C371.518,106.763 386.386,113.168 387.016,113.442 L386.816,113.901" id="Fill-38" fill="#FFFAD2"></path>
            <path d="M343.954,130.861 C343.854,130.861 343.757,130.838 343.662,130.787 C342.53,130.171 343.467,125.508 345.362,116.625 C347.198,108.022 349.483,97.316 349,91.023 L349.498,90.985 C349.988,97.35 347.694,108.095 345.852,116.729 C344.472,123.196 343.045,129.882 343.9,130.347 C343.924,130.359 344.122,130.445 344.739,129.828 C350.088,124.478 371.678,125.378 372.593,125.422 L372.571,125.921 C372.346,125.912 350.287,124.986 345.093,130.181 C344.784,130.49 344.358,130.861 343.954,130.861" id="Fill-39" fill="#FFFAD2"></path>
            <path d="M331.697,152.614 C330.76,152.614 330.062,152.451 329.664,152.073 C329.302,151.729 329.191,151.238 329.339,150.614 C330.646,145.058 327.368,122.27 327.335,122.04 L327.829,121.969 C327.966,122.91 331.155,145.081 329.825,150.729 C329.721,151.173 329.78,151.495 330.009,151.71 C331.354,152.985 337.951,151.064 344.331,149.204 C350.145,147.508 356.158,145.754 359.916,145.754 L359.916,146.254 C356.229,146.254 350.252,147.998 344.471,149.684 C339.179,151.228 334.424,152.614 331.697,152.614" id="Fill-40" fill="#FFFAD2"></path>
            <path d="M102.894,276.936 C102.894,276.936 74.125,277.379 62.381,247.17 C50.637,216.961 16.585,193.322 10.486,182.377 C4.387,171.431 44.371,165.23 68.683,183.507 C92.994,201.783 115.141,252.454 102.894,276.936" id="Fill-41" fill="#587877"></path>
            <path d="M98.795,274.544 C97.579,273.476 96.1,269.613 93.861,263.767 C87.894,248.184 76.788,219.178 53.664,200.595 C37.494,187.6 27.788,182.491 22.493,180.493 C16.748,178.325 14.818,179.25 14.799,179.259 L14.564,178.818 C14.876,178.65 22.585,174.977 53.977,200.205 C77.206,218.873 88.344,247.961 94.328,263.588 C96.461,269.157 98.002,273.182 99.125,274.169 L98.795,274.544" id="Fill-42" fill="#FFFAD2"></path>
            <path d="M48.216,196.191 C47.85,196.191 47.431,195.917 47.113,195.678 C41.886,191.756 22.413,193.847 22.217,193.869 L22.163,193.372 C22.972,193.282 42.031,191.238 47.413,195.278 C47.969,195.695 48.223,195.722 48.277,195.673 C49.256,194.878 44.374,184.44 42.028,179.423 C40.62,176.412 39.818,174.685 39.722,174.208 L40.212,174.108 C40.301,174.55 41.311,176.71 42.481,179.211 C47.276,189.464 49.67,195.187 48.593,196.062 C48.479,196.153 48.352,196.191 48.216,196.191" id="Fill-43" fill="#FFFAD2"></path>
            <path d="M44.54,216.561 L44.425,216.074 C45.093,215.917 60.867,212.282 67.401,215.505 C67.996,215.798 68.409,215.849 68.633,215.657 C69.695,214.733 67.797,208.973 65.788,202.873 C63.518,195.981 60.944,188.17 60.852,182.757 L61.352,182.748 C61.443,188.085 64.004,195.858 66.263,202.716 C68.825,210.493 70.213,214.946 68.96,216.034 C68.566,216.376 67.983,216.351 67.18,215.954 C60.808,212.809 44.702,216.523 44.54,216.561" id="Fill-44" fill="#FFFAD2"></path>
            <path d="M83.778,240.94 C83.335,240.94 82.94,240.449 82.668,240.058 C78.488,234.015 56.619,230.97 56.399,230.94 L56.466,230.444 C57.376,230.568 78.775,233.551 83.08,239.772 C83.574,240.487 83.789,240.439 83.811,240.435 C84.737,240.13 84.532,233.297 84.333,226.688 C84.068,217.863 83.738,206.88 85.36,200.707 L85.844,200.833 C84.24,206.937 84.569,217.88 84.833,226.673 C85.105,235.751 85.191,240.507 83.967,240.909 L83.778,240.94" id="Fill-45" fill="#FFFAD2"></path>
            <path d="M92.806,264.628 C90.319,264.628 85.373,262.152 79.783,259.355 C74.399,256.66 68.831,253.874 65.204,253.213 L65.294,252.721 C68.991,253.395 74.591,256.197 80.007,258.908 C85.949,261.882 92.094,264.96 93.648,263.941 C93.912,263.77 94.028,263.464 94.005,263.008 C93.71,257.214 100.821,235.973 101.124,235.071 L101.598,235.231 C101.524,235.451 94.214,257.282 94.504,262.982 C94.537,263.623 94.341,264.086 93.922,264.36 C93.642,264.543 93.266,264.628 92.806,264.628" id="Fill-46" fill="#FFFAD2"></path>
            <path d="M342.584,321.837 C342.584,321.837 370.807,327.43 387.776,299.815 C404.746,272.201 442.483,255.05 450.445,245.375 C458.408,235.7 420.183,222.432 392.989,236.054 C365.795,249.676 334.923,295.556 342.584,321.837" id="Fill-47" fill="#302339"></path>
            <path d="M347.045,320.22 L346.787,319.79 C348.07,319.021 350.308,315.338 353.404,310.24 C362.093,295.938 378.265,269.319 404.463,255.118 C439.87,235.925 446.794,240.92 447.072,241.143 L446.762,241.535 C446.745,241.521 445.01,240.267 438.971,241.369 C433.403,242.386 422.938,245.672 404.701,255.558 C378.621,269.694 362.495,296.239 353.832,310.499 C350.581,315.851 348.434,319.386 347.045,320.22" id="Fill-48" fill="#FFFAD2"></path>
            <path d="M436.845,254.577 C436.656,254.522 417.875,248.974 412.027,251.895 C411.542,252.138 410.853,252.415 410.504,252.007 C409.6,250.952 412.981,245.751 419.539,236.521 C421.137,234.272 422.517,232.33 422.684,231.912 L423.148,232.098 C422.968,232.549 421.87,234.104 419.946,236.812 C416.738,241.327 410.062,250.724 410.883,251.682 C410.93,251.734 411.179,251.76 411.805,251.447 C417.823,248.435 436.207,253.865 436.987,254.099 L436.845,254.577" id="Fill-49" fill="#FFFAD2"></path>
            <path d="M410.816,272.9 C410.664,272.834 395.49,266.298 388.65,268.245 C387.788,268.493 387.21,268.412 386.885,268.006 C385.847,266.71 388.011,262.578 391.926,255.387 C395.378,249.045 399.29,241.856 400.337,236.622 L400.827,236.72 C399.766,242.029 395.834,249.253 392.364,255.626 C389.294,261.267 386.395,266.594 387.274,267.693 C387.458,267.922 387.876,267.945 388.514,267.765 C395.518,265.761 410.386,272.168 411.016,272.441 L410.816,272.9" id="Fill-50" fill="#FFFAD2"></path>
            <path d="M367.954,289.861 C367.854,289.861 367.757,289.839 367.662,289.787 C366.53,289.172 367.467,284.508 369.362,275.626 C371.198,267.022 373.483,256.316 373,250.024 L373.498,249.985 C373.988,256.35 371.694,267.096 369.852,275.729 C368.472,282.196 367.045,288.882 367.901,289.348 C367.922,289.36 368.127,289.44 368.739,288.828 C374.088,283.479 395.679,284.379 396.593,284.421 L396.571,284.921 C396.346,284.909 374.287,283.986 369.093,289.182 C368.784,289.49 368.358,289.861 367.954,289.861" id="Fill-51" fill="#FFFAD2"></path>
            <path d="M355.697,311.614 C354.76,311.614 354.062,311.45 353.664,311.073 C353.302,310.729 353.191,310.237 353.339,309.613 C354.646,304.058 351.368,281.271 351.335,281.041 L351.829,280.969 C351.966,281.91 355.155,304.081 353.825,309.729 C353.721,310.173 353.78,310.494 354.009,310.71 C355.356,311.987 361.953,310.064 368.332,308.204 C374.146,306.509 380.158,304.755 383.916,304.755 L383.916,305.255 C380.229,305.255 374.252,306.998 368.472,308.684 C363.18,310.228 358.425,311.614 355.697,311.614" id="Fill-52" fill="#FFFAD2"></path>
            <path d="M145.85,212.834 C145.85,212.834 141.844,165.374 171.516,160.479 C196.707,156.324 216.784,167.567 226.662,192.995 C236.541,218.422 152.4,220.513 145.85,212.834" id="Fill-53" fill="#587877"></path>
            <path d="M84.164,134.556 C84.164,134.556 93.327,152.521 101.749,151.19 C110.171,149.859 113.67,138.256 127.282,143.045 C140.894,147.833 153.336,176.41 166.437,180.465 C179.538,184.52 157.909,214.601 157.909,214.601 C157.909,214.601 52.602,221.23 48.315,213.504 C44.029,205.777 76.761,166.815 79.952,164.401 C87.317,158.831 76.765,149.244 76.765,149.244 L84.164,134.556" id="Fill-54" fill="#EEB392"></path>
            <path d="M84.143,122.253 C84.143,122.253 95.467,145.097 83.297,149.682 C74.926,152.836 65.661,139.858 65.58,132.335 C65.499,124.813 77.282,118.688 84.143,122.253" id="Fill-55" fill="#EEB392"></path>
            <path d="M75.166,137.613 C75.366,138.141 75.195,138.694 74.786,138.849 C74.376,139.003 73.883,138.7 73.684,138.172 C73.484,137.644 73.655,137.09 74.064,136.936 C74.473,136.781 74.967,137.084 75.166,137.613" id="Fill-56" fill="#241A29"></path>
            <path d="M82.909,134.691 C83.109,135.219 82.938,135.772 82.529,135.927 C82.119,136.081 81.626,135.778 81.427,135.25 C81.227,134.722 81.398,134.168 81.807,134.014 C82.216,133.859 82.71,134.162 82.909,134.691" id="Fill-57" fill="#241A29"></path>
            <path d="M87.421,134.072 C87.421,134.072 87.281,129.501 89.738,130.594 C92.194,131.688 92.025,137.303 90.293,137.926 C88.562,138.549 87.228,136.031 87.421,134.072" id="Fill-58" fill="#EEB392"></path>
            <path d="M80.143,131.204 C80.143,131.204 81.683,129.982 83.519,131.647 C84.591,132.618 78.38,132.469 80.143,131.204" id="Fill-59" fill="#A5454E"></path>
            <path d="M73.53,133.519 C73.53,133.519 71.576,133.301 70.905,135.688 C70.513,137.08 75.695,133.653 73.53,133.519" id="Fill-60" fill="#A5454E"></path>
            <path d="M69.938,140.851 C69.938,140.851 67.041,137.313 65.907,139.751 C64.773,142.189 68.59,146.312 70.304,145.644 C72.019,144.977 71.371,142.202 69.938,140.851" id="Fill-61" fill="#EEB392"></path>
            <path d="M66.146,126.318 C66.146,126.318 70.461,135.332 68.123,139.976 C68.123,139.976 54.668,136.341 66.146,126.318" id="Fill-62" fill="#A5454E"></path>
            <path d="M80.338,141.893 C79.676,141.893 78.312,141.374 77.621,140.47 L78.019,140.167 C78.623,140.958 79.802,141.355 80.26,141.395 C80.116,140.72 79.139,138.334 78.18,136.197 L78.636,135.992 C80.182,139.437 80.892,141.356 80.748,141.697 L80.581,141.859 C80.518,141.882 80.436,141.893 80.338,141.893" id="Fill-63" fill="#D17771"></path>
            <path d="M80.31,144.826 C78.549,144.826 76.711,143.477 76.616,143.407 L76.914,143.005 C76.941,143.025 79.554,144.94 81.289,144.122 C82.253,143.666 82.792,142.427 82.89,140.44 L83.389,140.464 C83.281,142.651 82.646,144.034 81.501,144.574 C81.124,144.753 80.719,144.826 80.31,144.826" id="Fill-64" fill="#D17771"></path>
            <path d="M69.84,144.107 C68.692,141.295 67.388,141.417 67.376,141.413 L67.304,140.918 C67.369,140.906 68.989,140.702 70.303,143.917 L69.84,144.107" id="Fill-65" fill="#D17771"></path>
            <path d="M89.308,136.746 C88.168,133.462 89.519,132.55 89.577,132.513 L89.851,132.931 C89.84,132.938 88.784,133.711 89.78,136.582 L89.308,136.746" id="Fill-66" fill="#D17771"></path>
            <path d="M67.342,159.347 C67.342,159.347 67.098,155.212 63.76,152.323 C60.422,149.433 56.815,145.112 58.875,146.094 C60.935,147.075 63.537,148.702 63.537,148.702 C63.537,148.702 59.803,145.087 60.388,144.589 C60.973,144.091 66.039,146.513 66.039,146.513 C66.039,146.513 61.553,143.949 63.352,143.094 C65.152,142.239 77.257,152.704 75.25,156.448 C72.792,161.031 72.909,161.261 67.342,159.347" id="Fill-67" fill="#EEB392"></path>
            <path d="M150.92,210.722 C150.92,210.722 154.815,183.896 162.301,180.465 C169.787,177.034 243.007,200.08 252.365,201.016 C261.722,201.951 267.844,210.418 267.159,212.049 C266.475,213.681 255.026,214.26 250.264,215.195 C245.501,216.131 150.301,228.502 150.92,210.722" id="Fill-68" fill="#587877"></path>
            <path d="M157.838,181.5 C157.838,181.5 154.14,170.199 160.381,164.826 C182.42,145.854 242.409,186.689 252.779,196.203 C259.708,202.561 274.406,209.319 273.434,210.796 C272.461,212.274 258.393,204.61 253.539,204.654 C248.685,204.698 153.961,198.863 157.838,181.5" id="Fill-69" fill="#587877"></path>
            <path d="M65.164,153.83 C65.164,153.83 74.269,153.141 75.618,153.766 C76.967,154.392 78.5,211.925 72.472,215.195 C66.444,218.465 51.143,219.11 45.871,215.461 C40.599,211.812 61.182,151.604 65.164,153.83" id="Fill-70" fill="#D17771"></path>
            <path d="M81.914,162.176 C81.914,162.176 99.6,175.055 101.749,151.19 C101.749,151.19 114.84,140.051 124.795,139.976 C140.779,139.856 145.277,163.328 160.381,164.826 C166.54,165.437 158.329,217.338 158.329,217.338 C158.329,217.338 65.097,219.364 60.329,218.005 C55.56,216.645 58.499,182.964 61.698,178.354 C64.897,173.743 79.144,161.27 81.914,162.176" id="Fill-71" fill="#D17771"></path>
            <path d="M76.765,149.244 C76.765,149.244 82.193,156.175 86.284,155.551 C90.376,154.927 90.764,144.575 90.764,144.575 L88.934,142.216 C88.934,142.216 88.934,154.231 76.765,149.244" id="Fill-72" fill="#D17771"></path>
            <path d="M63.034,123.485 C63.034,123.485 64.754,118.874 71.331,116.115 C77.909,113.356 86.896,109.106 87.403,111.106 C87.909,113.106 85.835,117.646 85.835,117.646 C85.835,117.646 90.839,113.99 90.409,116.731 C89.979,119.471 88.406,125.697 78.613,128.606 C68.82,131.515 58.636,131.334 63.034,123.485" id="Fill-73" fill="#A5454E"></path>
            <path d="M81.343,121.079 C81.343,121.079 84.867,133.05 87.82,132.279 C87.82,132.279 89.271,126.204 87.403,122.856 C85.534,119.507 81.343,121.079 81.343,121.079" id="Fill-74" fill="#A5454E"></path>
            <path d="M71.824,211.009 L71.56,210.584 C76.848,207.292 76.415,166.742 76.411,166.333 L76.911,166.327 C76.931,168.009 77.349,207.569 71.824,211.009" id="Fill-75" fill="#A84D58"></path>
            <path d="M92.962,167.868 C86.451,167.868 79.909,164.659 79.841,164.625 L80.063,164.177 C80.132,164.211 87.051,167.602 93.65,167.355 C99.847,167.126 102.798,156.474 103.412,152.389 L103.906,152.463 C103.652,154.152 102.805,157.892 101.241,161.196 C99.201,165.504 96.653,167.745 93.668,167.855 C93.433,167.864 93.197,167.868 92.962,167.868" id="Fill-76" fill="#A84D58"></path>
            <path d="M95.755,177.398 C95.755,177.398 96.222,164.295 110.601,156.908 C118.984,152.602 120.668,161.45 121.171,162.751 C121.674,164.052 99.528,180.656 96.34,180.324 C93.152,179.991 64.016,182.495 63.4,182.166 C62.785,181.836 60.717,176.971 63.848,174.622 C66.979,172.273 89.874,169.516 95.755,177.398" id="Fill-77" fill="#FFFAD2"></path>
            <path d="M71.402,213.77 C71.402,213.77 58.853,179.883 62.025,178.64 C66.338,176.949 91.219,177.059 95.755,177.398 C95.755,177.398 113.952,157.06 119.655,158.333 C125.358,159.606 137.58,197.193 135.238,197.356 C132.895,197.518 118.254,209.224 106.494,214.351 C106.494,214.351 74.621,215.199 71.402,213.77" id="Fill-78" fill="#587877"></path>
            <path d="M126.253,199.453 C126.253,199.453 119.648,195.796 115.239,195.583 C110.829,195.369 105.237,196.005 107.404,196.717 C109.572,197.429 112.578,198.048 112.578,198.048 C112.578,198.048 107.381,198.086 107.46,198.85 C107.54,199.614 112.877,201.359 112.877,201.359 C112.877,201.359 107.861,200.118 108.573,201.978 C109.285,203.839 118.589,204.336 122.199,208.08 C125.809,211.825 131.602,201.91 126.253,199.453" id="Fill-79" fill="#EEB392"></path>
            <path d="M122.71,162.713 C115.809,154.936 120.886,144.334 120.938,144.228 L121.387,144.448 C121.336,144.551 116.407,154.858 123.084,162.381 L122.71,162.713" id="Fill-80" fill="#A84D58"></path>
            <path d="M117.671,191.606 C117.671,191.606 113.683,204.476 117.671,208.916 C121.659,213.356 155.185,202.105 158.737,192.203 C162.29,182.302 156.918,173.524 150.917,173.574 C144.917,173.624 135.409,186.438 117.671,191.606" id="Fill-81" fill="#D17771"></path>
            <path d="M128.23,211.715 C126.319,211.715 124.394,211.504 122.474,211.04 L122.591,210.553 C133.613,213.217 144.902,207.397 151.792,201.062 C156.628,196.616 159.459,191.846 159.006,188.911 C157.869,181.553 148.039,162.146 147.939,161.951 L148.385,161.725 C148.792,162.524 158.351,181.398 159.5,188.835 C159.979,191.93 157.086,196.874 152.131,201.43 C146.342,206.753 137.479,211.715 128.23,211.715" id="Fill-82" fill="#A84D58"></path>
            <path d="M132.749,184.598 L132.39,184.25 C133.319,183.289 142.135,176.251 145.592,174.941 L145.769,175.409 C142.366,176.698 133.667,183.648 132.749,184.598" id="Fill-83" fill="#A84D58"></path>
            <path d="M67.387,176.445 L67.296,175.954 C68.052,175.814 85.89,172.571 93.073,175.973 L92.859,176.425 C85.817,173.092 67.57,176.41 67.387,176.445" id="Fill-84" fill="#FFFAD2"></path>
            <path d="M102.409,178.575 C102.409,178.575 120.269,168.106 121.179,166.356 C121.499,165.741 124.795,176.199 124.795,176.199 C124.795,176.199 107.936,185.582 106.922,185.719 C105.909,185.856 102.909,180.545 102.409,178.575" id="Fill-85" fill="#FFFAD2"></path>
            <path d="M124.572,209.028 C121.215,202.351 122.238,190.415 122.283,189.91 L122.781,189.955 C122.771,190.077 121.726,202.254 125.019,208.803 L124.572,209.028" id="Fill-86" fill="#A84D58"></path>
            <path d="M76.118,161.708 C72.548,160.334 62.275,160.725 62.17,160.729 L62.151,160.229 C62.576,160.213 72.633,159.831 76.298,161.241 L76.118,161.708" id="Fill-87" fill="#A84D58"></path>
            <path d="M63.756,148.822 L63.317,148.583 C63.345,148.532 64.021,147.318 65.92,146.293 L66.157,146.733 C64.399,147.682 63.763,148.811 63.756,148.822" id="Fill-88" fill="#D17771"></path>
            <path d="M212.08,170.74 C201.898,165.879 184.392,163.343 172,168.214 L171.818,167.749 C184.339,162.826 202.019,165.383 212.296,170.289 L212.08,170.74" id="Fill-89" fill="#444B53"></path>
            <path d="M250.053,193.897 C250.053,193.897 247.462,206.222 250.447,207.178 C253.433,208.134 268.039,204.038 272.047,206.075 C276.055,208.113 278.91,211.632 278.482,206.623 C278.055,201.613 272.853,196.993 267.704,195.553 C262.555,194.113 250.053,193.897 250.053,193.897" id="Fill-90" fill="#36283D"></path>
            <path d="M250.077,206.314 C250.077,206.314 248.995,213.645 251.981,214.601 C254.967,215.557 265.838,212.563 269.846,214.601 C273.854,216.638 281.014,220.332 280.587,215.322 C280.159,210.313 274.957,205.692 269.808,204.252 C264.659,202.813 250.077,206.314 250.077,206.314" id="Fill-91" fill="#36283D"></path>
            <path d="M166.909,168.966 C166.909,168.966 154.662,203.338 155.329,217.338 C155.587,222.758 177.178,220.905 184.302,220.549 C191.426,220.194 169.552,174.757 166.909,168.966" id="Fill-92" fill="#587877"></path>
            <path d="M160.512,194.09 C159.012,192.849 160.28,187.282 161.399,182.37 C161.853,180.377 162.282,178.495 162.411,177.328 C162.841,173.427 166.56,168.991 166.718,168.804 L167.1,169.127 C167.063,169.172 163.321,173.634 162.908,177.383 C162.776,178.578 162.364,180.386 161.887,182.481 C160.908,186.777 159.567,192.66 160.831,193.704 L160.512,194.09" id="Fill-93" fill="#444B53"></path>
            <path d="M65.783,128.49 L65.536,128.055 C65.79,127.911 71.789,124.522 74.493,124.522 C80.268,124.522 83.578,122.488 84.331,118.477 L84.822,118.568 C84.019,122.851 80.543,125.022 74.493,125.022 C71.92,125.022 65.844,128.455 65.783,128.49" id="Fill-94" fill="#843640"></path>
            <path d="M64.208,126.733 L63.777,126.479 C63.912,126.25 67.13,120.877 71.511,119.698 C73.264,119.225 74.659,119.366 75.782,119.48 C77.514,119.653 78.559,119.76 79.691,117.733 L80.127,117.978 C78.836,120.291 77.465,120.151 75.731,119.978 C74.594,119.863 73.305,119.733 71.641,120.18 C67.458,121.307 64.24,126.679 64.208,126.733" id="Fill-95" fill="#843640"></path>
            <path d="M65.92,137.93 C65.852,137.708 64.235,132.482 65.101,130.665 L65.552,130.88 C64.77,132.521 66.381,137.729 66.398,137.781 L65.92,137.93" id="Fill-96" fill="#843640"></path>
            <path d="M86.914,130.154 C86.359,127.377 85.097,126.31 85.084,126.299 L85.4,125.912 C85.458,125.958 86.811,127.086 87.404,130.057 L86.914,130.154" id="Fill-97" fill="#843640"></path>
            <path d="M258.964,206.013 C258.775,205.354 257.364,202.858 256.645,201.631 L257.076,201.378 C257.162,201.525 259.191,204.992 259.444,205.875 L258.964,206.013" id="Fill-98" fill="#FFFAD2"></path>
            <path d="M263.397,206.227 L262.903,206.155 C263.135,204.539 261.23,201.419 261.211,201.388 L261.637,201.126 C261.72,201.26 263.655,204.431 263.397,206.227" id="Fill-99" fill="#FFFAD2"></path>
            <path d="M260.197,215.016 C260.009,214.357 258.598,211.861 257.878,210.634 L258.31,210.381 C258.395,210.528 260.425,213.995 260.678,214.879 L260.197,215.016" id="Fill-100" fill="#FFFAD2"></path>
            <path d="M264.631,215.229 L264.137,215.159 C264.368,213.542 262.464,210.423 262.444,210.392 L262.87,210.13 C262.953,210.264 264.889,213.435 264.631,215.229" id="Fill-101" fill="#FFFAD2"></path>
            <path d="M250.071,206.564 C249.62,206.554 204.651,205.516 184.263,202.344 C166.702,199.612 162.65,195.878 162.486,195.721 L162.832,195.36 C162.872,195.397 166.996,199.152 184.34,201.85 C204.696,205.017 249.631,206.054 250.083,206.064 L250.071,206.564" id="Fill-102" fill="#444B53"></path>
            <path d="M95.158,177.489 C85.739,173.966 65.891,176.312 65.692,176.336 L65.632,175.84 C65.833,175.815 85.804,173.458 95.333,177.02 L95.158,177.489" id="Fill-103" fill="#C6C5A2"></path>
            <path d="M97.896,173.675 L97.428,173.501 C100.673,164.764 112.177,158.431 112.293,158.368 L112.532,158.808 C112.417,158.87 101.076,165.115 97.896,173.675" id="Fill-104" fill="#C6C5A2"></path>
            <path d="M106.483,214.601 C106.192,214.601 105.789,214.298 99.592,196.933 C96.503,188.277 93.457,179.507 93.426,179.42 L93.898,179.256 C98.617,192.843 105.902,213.35 106.635,214.153 L106.492,214.283 L106.499,214.601 L106.483,214.601" id="Fill-105" fill="#444B53"></path>
            <path d="M111.676,212.921 C110.194,208.721 98.545,176.746 98.427,176.423 L98.897,176.252 C99.015,176.575 110.665,208.552 112.148,212.755 L111.676,212.921" id="Fill-106" fill="#444B53"></path>
            <path d="M39.941,278.499 C39.941,278.499 211.537,280.175 218.751,278.499 C225.965,276.822 243.033,275.845 245.092,279.266 C247.152,282.687 254.307,338.291 244.001,341.643 C233.695,344.996 36.85,342.761 32.727,342.761 C28.605,342.761 31.181,285.763 33.243,282.969 C35.304,280.175 33.243,279.616 39.941,278.499" id="Fill-107" fill="#57787E"></path>
            <path d="M84.658,294.033 C84.658,294.033 84.247,320.83 87.119,324.784 C89.99,328.738 210.58,328.299 214.682,327.42 C218.783,326.541 216.322,293.154 216.322,293.154 C216.322,293.154 84.247,289.64 84.658,294.033" id="Fill-108" fill="#3F2D49"></path>
            <path d="M47.162,278.369 L46.162,343.839 C46.162,343.839 54.662,344.354 56.162,344.354 C57.662,344.354 57.162,277.338 57.162,277.338 L47.162,278.369" id="Fill-109" fill="#3F2D49"></path>
            <path d="M65.662,278.338 L64.662,341.838 C64.662,341.838 73.162,342.338 74.662,342.338 C76.162,342.338 75.662,277.338 75.662,277.338 L65.662,278.338" id="Fill-110" fill="#3F2D49"></path>
            <path d="M39.941,216.453 C39.941,216.453 211.356,216.521 218.751,216.453 C231.162,216.338 244.103,218.02 246.162,221.338 C248.222,224.656 254.307,274.447 244.001,277.699 C233.695,280.951 36.85,278.783 32.727,278.783 C28.605,278.783 31.181,223.499 33.243,220.789 C35.304,218.079 33.243,217.537 39.941,216.453" id="Fill-111" fill="#3F2D49"></path>
            <path d="M31.662,227.838 C31.662,227.838 213.662,228.338 215.662,231.838 C217.662,235.338 220.162,267.338 211.162,270.338 C202.162,273.338 34.162,274.338 29.662,271.338 C25.162,268.338 25.162,228.838 31.662,227.838" id="Fill-112" fill="#FFFAD2"></path>
            <path d="M153.799,239.114 C143.416,239.114 133.416,238.755 125.068,238.455 C117.963,238.2 112.351,238 108.668,238.088 C88.401,238.582 32.229,239.083 31.664,239.088 L31.66,238.588 C32.225,238.583 88.393,238.082 108.656,237.588 C112.352,237.498 117.973,237.699 125.086,237.955 C135.385,238.325 148.199,238.787 161.14,238.55 C188.412,238.052 215.158,237.588 215.158,237.588 L215.167,238.088 C215.167,238.088 188.42,238.552 161.148,239.05 C158.689,239.095 156.233,239.114 153.799,239.114" id="Fill-113" fill="#C6C5A2"></path>
            <path d="M97.341,249.429 C72.404,249.429 29.73,248.599 29.157,248.588 L29.167,248.088 C29.932,248.104 105.747,249.576 114.133,248.59 C118.207,248.11 139.791,247.306 162.641,246.453 C186.919,245.547 212.023,244.61 214.613,244.093 L214.711,244.583 C212.082,245.108 186.958,246.046 162.66,246.952 C139.819,247.805 118.246,248.609 114.191,249.086 C112.077,249.335 105.705,249.429 97.341,249.429" id="Fill-114" fill="#C6C5A2"></path>
            <path d="M78.133,257.029 C54.455,257.029 29.04,256.595 28.658,256.588 L28.666,256.088 C29.241,256.099 86.422,257.076 109.151,256.088 C128.814,255.233 214.101,252.055 215.741,252.601 L215.583,253.075 C213.79,252.617 134.87,255.471 109.173,256.588 C101.553,256.919 90.062,257.029 78.133,257.029" id="Fill-115" fill="#C6C5A2"></path>
            <path d="M77.903,265.41 C54.85,265.41 32.059,265.094 31.659,265.088 L31.665,264.588 C32.371,264.599 102.371,265.571 121.143,264.089 C128.271,263.526 142.292,263.313 157.136,263.087 C182.054,262.707 210.296,262.277 215.567,260.106 L215.757,260.569 C210.398,262.775 182.106,263.206 157.144,263.586 C142.307,263.813 128.294,264.025 121.182,264.587 C113.069,265.228 95.41,265.41 77.903,265.41" id="Fill-116" fill="#C6C5A2"></path>
            <path d="M175.162,262.838 C175.162,262.838 157.162,239.338 159.162,238.338 C161.162,237.338 193.162,234.338 192.662,237.338 C192.162,240.338 177.162,262.838 175.162,262.838" id="Fill-117" fill="#587877"></path>
            <path d="M148.162,279.838 C148.162,279.838 130.162,256.338 132.162,255.338 C134.162,254.338 166.162,251.338 165.662,254.338 C165.162,257.338 150.162,279.838 148.162,279.838" id="Fill-118" fill="#CB8C5D"></path>
            <path d="M80.662,227.338 C80.662,227.338 86.662,288.338 86.662,291.838 C86.662,295.338 93.662,275.838 93.662,275.838 C93.662,275.838 99.682,291.925 101.537,291.169 C103.391,290.412 106.662,229.838 103.662,227.838 C100.662,225.838 80.662,227.338 80.662,227.338" id="Fill-119" fill="#C44F58"></path>
            <path d="M423.487,141.305 C423.487,141.305 446.758,314.643 449.296,322.033 C451.834,329.423 452.987,358.238 435.611,358.782 C431.557,358.909 397.589,373.068 392.777,346.822 C390.72,335.603 362.336,145.132 361.838,140.8 C361.339,136.468 413.035,130.411 416.06,132.258 C419.085,134.105 421.566,134.393 423.487,141.305" id="Fill-120" fill="#CB8C5D"></path>
            <path d="M386.448,310.195 C386.448,310.195 440.479,299.52 444.443,301.216 C448.407,302.912 450.383,327.166 451.46,336.813 C452.536,346.46 446.364,358.889 430.096,361.18 C413.827,363.47 393.796,366.238 391.256,343.583 C389.358,326.646 386.448,310.195 386.448,310.195" id="Fill-121" fill="#C87857"></path>
            <path d="M371.507,139.641 C371.507,139.641 400.194,345.158 404.704,348.7 C409.214,352.242 438.482,347.157 439.002,342.92 C440.062,334.292 411.678,136.798 408.5,133.316 C405.321,129.835 369.146,132.86 371.507,139.641" id="Fill-122" fill="#FFFAD2"></path>
            <path d="M412.888,350.877 C407.967,344.578 376.767,144.491 375.441,135.976 L375.935,135.899 C376.259,137.983 408.44,344.372 413.282,350.569 L412.888,350.877" id="Fill-123" fill="#C6C5A2"></path>
            <path d="M425.282,345.226 C425.034,343.322 400.47,154.599 396.294,132.893 L396.785,132.798 C400.965,154.52 425.53,343.257 425.778,345.161 L425.282,345.226" id="Fill-124" fill="#C6C5A2"></path>
            <path d="M433.483,348.168 L432.983,348.146 C433.491,336.997 408.505,135.382 408.252,133.347 L408.748,133.285 C409,135.321 433.992,336.978 433.483,348.168" id="Fill-125" fill="#C6C5A2"></path>
            <path d="M421.877,347.729 C421.511,345.767 385.347,151.305 386.208,132.375 L386.708,132.398 C385.849,151.271 422.002,345.676 422.368,347.638 L421.877,347.729" id="Fill-126" fill="#C6C5A2"></path>
            <path d="M368.432,147.805 C368.432,147.805 369.496,322.695 371.074,330.347 C372.653,337.999 370.136,366.728 352.832,365.06 C348.795,364.671 313.303,374.4 311.864,347.756 C311.249,336.366 307.292,143.833 307.347,139.472 C307.403,135.112 359.449,135.672 362.215,137.888 C364.981,140.104 367.405,140.705 368.432,147.805" id="Fill-127" fill="#62626C"></path>
            <path d="M310.239,310.621 C310.239,310.621 365.188,306.897 368.905,309.082 C372.621,311.268 370.12,334.395 369.962,344.1 C369.805,353.805 363.484,366.533 347.057,366.738 C330.629,366.943 310.634,367.038 312.552,344.322 C314.003,327.122 310.239,310.621 310.239,310.621" id="Fill-128" fill="#4C404C"></path>
            <path d="M317.086,139.551 C317.086,139.551 319.432,347.047 323.456,351.133 C327.48,355.22 357.156,353.894 358.211,349.757 C360.358,341.334 357.292,141.834 354.582,137.977 C351.871,134.12 315.605,132.525 317.086,139.551" id="Fill-129" fill="#FFFAD2"></path>
            <path d="M331.298,354.333 C327.217,347.459 321.686,145.029 321.453,136.416 L321.953,136.402 C322.01,138.51 327.713,347.315 331.728,354.077 L331.298,354.333" id="Fill-130" fill="#C6C5A2"></path>
            <path d="M344.309,350.302 C344.305,348.382 343.914,158.067 342.528,136.006 L343.027,135.975 C344.414,158.051 344.805,348.38 344.809,350.302 L344.309,350.302" id="Fill-131" fill="#C6C5A2"></path>
            <path d="M352.069,354.262 L351.577,354.176 C353.496,343.183 354.324,140.027 354.332,137.976 L354.832,137.976 C354.824,140.029 353.996,343.227 352.069,354.262" id="Fill-132" fill="#C6C5A2"></path>
            <path d="M340.612,352.353 C340.5,350.359 329.331,152.879 332.591,134.211 L333.083,134.297 C329.834,152.909 340.999,350.332 341.112,352.323 L340.612,352.353" id="Fill-133" fill="#C6C5A2"></path>
            <path d="M308.865,143.402 C308.865,143.402 310.388,324.928 312.302,332.53 C314.217,340.131 315.58,358.167 311.996,360.404 C308.412,362.641 249.643,371.163 245.893,360.319 C242.143,349.476 240.727,141.234 240.648,136.874 C240.569,132.514 301.001,134.262 304,136.394 C307,138.526 307.552,136.336 308.865,143.402" id="Fill-134" fill="#3F2D49"></path>
            <path d="M240.52,150.338 C240.52,150.338 301.267,150.338 306.212,150.338 C306.212,150.338 306.918,159.133 306.212,159.133 C305.505,159.133 243.699,159.866 241.58,159.378 C239.461,158.889 240.52,150.338 240.52,150.338" id="Fill-135" fill="#C44F58"></path>
            <path d="M240.52,166.026 C240.52,166.026 301.267,166.026 306.212,166.026 C306.212,166.026 306.918,174.821 306.212,174.821 C305.505,174.821 243.699,175.554 241.58,175.066 C239.461,174.577 240.52,166.026 240.52,166.026" id="Fill-136" fill="#C44F58"></path>
            <path d="M259.606,192.077 C259.606,192.077 290.326,192.077 292.827,192.077 C292.827,192.077 293.854,313.338 293.497,313.338 C293.14,313.338 261.214,317.11 260.142,310.698 C259.071,304.286 259.606,192.077 259.606,192.077" id="Fill-137" fill="#C44F58"></path>
            <path d="M222.941,77.112 C222.941,77.112 227.89,86.887 240.276,95.137 C252.662,103.387 267.162,86.124 267.162,86.124 C267.162,86.124 228.221,73.337 222.941,77.112" id="Fill-138" fill="#EEB392"></path>
            <path d="M308.114,28.482 C308.114,28.482 305.019,40.125 306.25,44.085 C307.481,48.045 322.063,49.118 326.835,54.945 C331.608,60.772 318.112,113.628 318.027,117.299 C317.943,120.97 266.441,114.305 260.078,111.231 C253.715,108.158 271.017,54.759 277.158,49.987 C283.298,45.214 289.318,49.67 292.301,44.085 C295.284,38.501 294.004,32.402 294.004,32.402 L308.114,28.482" id="Fill-139" fill="#EEB392"></path>
            <path d="M315.906,16.341 C315.906,16.341 310.263,41.206 297.931,37.077 C289.448,34.238 290.459,18.324 295.145,12.439 C299.832,6.555 312.837,9.245 315.906,16.341" id="Fill-140" fill="#EEB392"></path>
            <path d="M299.247,22.584 C299.068,23.12 298.587,23.441 298.172,23.303 C297.756,23.164 297.565,22.618 297.744,22.082 C297.923,21.547 298.404,21.225 298.819,21.364 C299.235,21.502 299.426,22.049 299.247,22.584" id="Fill-141" fill="#241A29"></path>
            <path d="M307.096,25.207 C306.917,25.743 306.436,26.064 306.021,25.926 C305.606,25.787 305.414,25.24 305.593,24.705 C305.772,24.17 306.254,23.848 306.669,23.987 C307.084,24.125 307.275,24.672 307.096,25.207" id="Fill-142" fill="#241A29"></path>
            <path d="M310.986,27.576 C310.986,27.576 313.764,23.943 314.978,26.342 C316.192,28.742 312.515,32.989 310.779,32.379 C309.043,31.769 309.599,28.974 310.986,27.576" id="Fill-143" fill="#EEB392"></path>
            <path d="M307.152,20.757 C307.152,20.757 309.119,20.781 309.491,23.232 C309.709,24.662 304.987,20.625 307.152,20.757" id="Fill-144" fill="#241A29"></path>
            <path d="M300.563,18.377 C300.563,18.377 299.185,16.974 297.158,18.401 C295.974,19.233 302.157,19.848 300.563,18.377" id="Fill-145" fill="#241A29"></path>
            <path d="M293.148,21.795 C293.148,21.795 293.135,17.221 290.717,18.396 C288.298,19.571 288.655,25.178 290.406,25.743 C292.157,26.308 293.406,23.747 293.148,21.795" id="Fill-146" fill="#EEB392"></path>
            <path d="M299.383,8.13 C299.383,8.13 297.038,17.844 292.293,19.97 C292.293,19.97 284.154,8.656 299.383,8.13" id="Fill-147" fill="#222533"></path>
            <path d="M313.885,12.976 C313.885,12.976 309.919,22.148 312.433,26.7 C312.433,26.7 325.738,22.552 313.885,12.976" id="Fill-148" fill="#222533"></path>
            <path d="M316.919,14.967 C316.919,14.967 320.22,8.134 315.429,4.202 C310.638,0.27 300.11,5.874 299.52,1.555 C299.147,-1.174 296.014,5.86 300.535,7.436 C300.535,7.436 296.006,3.478 295.812,4.349 C293.93,12.782 311.863,21.503 316.919,14.967" id="Fill-149" fill="#222533"></path>
            <path d="M304.392,12.255 C304.193,12.189 303.992,12.119 303.787,12.045 C300.21,10.748 298.968,9.32 298.556,8.351 C298.17,7.442 298.44,6.814 298.451,6.787 L298.762,6.926 L298.607,6.857 L298.762,6.925 C298.753,6.946 298.541,7.461 298.876,8.234 C299.267,9.137 300.457,10.475 303.904,11.725 C306.696,12.739 308.862,12.962 310.445,13.125 C312.493,13.337 313.728,13.465 313.97,15.189 L313.634,15.236 C313.428,13.776 312.481,13.678 310.41,13.464 C308.925,13.31 306.93,13.104 304.392,12.255" id="Fill-150" fill="#3F2D49"></path>
            <path d="M315.522,13.578 C315.522,13.549 315.489,10.74 310.949,8.618 C309.044,7.73 307.544,8.047 306.336,8.303 C305.433,8.494 304.652,8.658 304.007,8.232 C303.372,7.813 302.94,6.872 302.605,5.183 L302.938,5.117 C303.25,6.689 303.649,7.588 304.194,7.948 C304.72,8.297 305.403,8.153 306.266,7.97 C307.522,7.705 309.089,7.375 311.092,8.31 C315.848,10.533 315.863,13.458 315.862021,13.582 L315.522,13.578" id="Fill-151" fill="#3F2D49"></path>
            <path d="M300.765,29.296 C300.273,29.125 299.307,27.654 299.347,26.35 L299.847,26.366 C299.815,27.36 300.479,28.413 300.809,28.733 C301.123,28.119 301.872,25.652 302.478,23.39 L302.961,23.519 C301.984,27.166 301.323,29.103 300.997,29.276 L300.765,29.296" id="Fill-152" fill="#D17771"></path>
            <path d="M300.349,32.054 C300.15,32.054 299.956,32.03 299.764,31.983 C297.612,31.451 296.748,28.133 296.713,27.993 L297.197,27.87 C297.205,27.901 298.023,31.039 299.885,31.498 C300.922,31.754 302.12,31.133 303.451,29.653 L303.822,29.987 C302.587,31.361 301.421,32.054 300.349,32.054" id="Fill-153" fill="#D17771"></path>
            <path d="M291.494,24.403 L291.016,24.257 C291.901,21.351 290.817,20.619 290.806,20.612 L291.063,20.184 C291.123,20.218 292.508,21.078 291.494,24.403" id="Fill-154" fill="#D17771"></path>
            <path d="M311.231,31.012 L310.761,30.841 C311.95,27.572 313.574,27.722 313.643,27.728 L313.586,28.225 L313.614,27.977 L313.59,28.226 C313.593,28.234 312.274,28.144 311.231,31.012" id="Fill-155" fill="#D17771"></path>
            <path d="M329.129,196.803 C329.129,196.803 323.986,211.283 326.574,216.876 C329.162,222.47 335.495,225.283 338.995,224.71 C342.495,224.137 334.573,216.067 333.828,210.793 C333.084,205.519 336.162,196.803 336.162,196.803 L329.129,196.803" id="Fill-156" fill="#36283D"></path>
            <path d="M315.819,197.93 C315.819,197.93 310.676,212.409 313.264,218.003 C315.852,223.596 322.185,226.409 325.685,225.836 C329.186,225.263 321.264,217.193 320.519,211.919 C319.774,206.645 322.852,197.93 322.852,197.93 L315.819,197.93" id="Fill-157" fill="#36283D"></path>
            <path d="M282.953,131.539 C282.953,131.539 289.989,112.313 309.267,116.857 C328.544,121.402 334.674,199.2 324.779,206.005 C320.901,208.671 307.409,206.646 307.162,203.137 C304.495,165.349 281.626,147.454 282.953,131.539" id="Fill-158" fill="#CB8C5D"></path>
            <path d="M300.67,117.745 C300.67,117.745 332.106,113.252 346.162,127.205 C360.218,141.159 350.347,201.311 338.328,206.613 C333.795,208.613 325.846,205.47 325.846,205.47 C322.877,201.441 291.218,130.617 300.67,117.745" id="Fill-159" fill="#CB8C5D"></path>
            <path d="M326.081,205.555 L325.61,205.384 C327.86,199.207 334,158.243 329.128,135.346 C326.574,123.347 322.711,119.147 319.919,117.737 C317.33,116.43 315.299,117.323 315.278,117.332 L315.07,116.877 C315.161,116.835 317.322,115.875 320.127,117.282 C323.022,118.736 327.019,123.031 329.616,135.241 C334.507,158.223 328.339,199.352 326.081,205.555" id="Fill-160" fill="#A1674B"></path>
            <path d="M296.955,135.519 C296.955,135.519 264.241,136.98 258.789,132.584 C249.417,125.025 260.078,111.231 260.078,111.231 L309.267,116.857 C309.267,116.857 308.688,135.342 296.955,135.519" id="Fill-161" fill="#CB8C5D"></path>
            <path d="M288.992,46.279 C288.992,46.279 289.098,55.137 299.314,56.068 C308.234,56.881 307.421,45.787 313.614,48.272 C319.807,50.758 324.219,49.085 327.857,58.611 C331.495,68.137 326.136,119.662 323.184,119.366 C320.233,119.07 289.716,115.403 278.865,122.525 C269.828,128.455 252.907,133.513 254.325,125.943 C255.744,118.373 259.355,61.974 264.534,53.881 C267.837,48.72 286.408,46.517 288.992,46.279" id="Fill-162" fill="#C44F58"></path>
            <path d="M213.405,69.053 C213.405,69.053 270.583,61.564 272.8,67.179 C275.016,72.794 275.262,85.031 272.8,85.931 C270.337,86.83 216.062,90.514 214.191,87.736 C212.319,84.959 213.405,69.053 213.405,69.053" id="Fill-163" fill="#CB8C5D"></path>
            <path d="M211.842,52.236 L272.825,52.157 C274.559,58.024 275.122,68.761 272.503,68.914 C255.428,69.914 235.194,70.928 222.942,70.906 C216.175,70.893 211.843,70.565 211.82,69.743 C211.725,66.343 211.842,52.236 211.842,52.236" id="Fill-164" fill="#D17771"></path>
            <path d="M210.47,34.133 C210.47,34.133 271.539,29.186 273.281,34.966 C275.023,40.746 274.357,51.278 271.828,51.97 C269.299,52.662 227.995,52.137 211.819,52.515 C208.471,52.594 210.47,34.133 210.47,34.133" id="Fill-165" fill="#3F2D49"></path>
            <path d="M206.14,71.753 C206.14,71.753 206.102,66.332 206.585,65.091 C208.185,60.976 211.462,56.928 211.189,59.193 C210.915,61.458 210.203,64.444 210.203,64.444 C210.203,64.444 212.438,59.752 213.097,60.147 C213.755,60.543 213.074,66.117 213.074,66.117 C213.074,66.117 214.075,61.048 215.459,62.481 C216.843,63.914 213.357,67.514 213.092,74.611 C212.897,79.808 207.215,78.258 206.14,71.753" id="Fill-166" fill="#EEB392"></path>
            <path d="M284.97,136.93 C284.232,136.93 283.659,136.818 283.3,136.548 C283.041,136.354 282.899,136.089 282.879,135.761 C282.696,132.906 293.52,129.516 294.755,129.139 L294.901,129.617 C291.65,130.61 283.244,133.644 283.377,135.729 C283.389,135.91 283.46,136.043 283.601,136.148 C284.558,136.866 288.07,136.083 291.466,135.327 C294.144,134.731 296.91,134.114 298.835,134.114 L298.917,134.115 L298.913,134.615 L298.834,134.614 C296.965,134.614 294.226,135.225 291.575,135.815 C288.952,136.399 286.573,136.929 284.97,136.93" id="Fill-167" fill="#A1674B"></path>
            <path d="M309.942,204.835 L309.446,204.771 C309.997,200.548 310.481,188.092 303.121,163.695 C298.588,148.669 292.936,135.906 289.378,132.658 C288.727,132.063 288.175,131.812 287.742,131.91 C281.642,133.277 265.181,129.772 264.481,129.623 L264.587,129.133 C264.756,129.17 281.637,132.767 287.633,131.422 C288.235,131.288 288.937,131.578 289.715,132.289 C293.333,135.591 299.043,148.447 303.6,163.551 C306.061,171.709 311.606,192.063 309.942,204.835" id="Fill-168" fill="#A1674B"></path>
            <path d="M318.801,63.253 C318.801,63.253 329.413,71.821 332.495,79.941 C335.578,88.061 316.108,108.743 307.773,109.763 C299.438,110.783 254.552,86.473 254.241,84.391 C253.931,82.31 254.305,75.448 257.089,75.755 C261.157,76.203 290.662,86.467 301.157,88.019 C306.573,88.819 312.108,61.286 318.801,63.253" id="Fill-169" fill="#EEB392"></path>
            <path d="M302.719,78.268 C302.719,78.268 326.495,83.306 331.194,89.398 C333.529,92.425 337.495,78.855 337.162,67.829 C336.828,56.803 316.857,47.284 313.614,48.272 C310.371,49.261 302.719,78.268 302.719,78.268" id="Fill-170" fill="#C44F58"></path>
            <path d="M308.986,74.042 L308.49,73.977 C308.556,73.486 310.117,61.932 313.433,58.439 C316.747,54.947 322.876,53.688 323.136,53.636 L323.233,54.126 C323.172,54.139 316.999,55.408 313.796,58.783 C310.591,62.16 309.002,73.924 308.986,74.042" id="Fill-171" fill="#9F434C"></path>
            <path d="M258.979,123.578 L258.511,123.406 C258.635,123.064 261.798,115.03 282.087,113.965 C292.688,113.407 301.365,113.914 308.335,114.32 C314.677,114.689 319.258,114.956 322.099,114.214 L322.226,114.697 C319.308,115.46 314.692,115.191 308.306,114.819 C301.349,114.414 292.69,113.91 282.112,114.464 C262.203,115.509 259.01,123.498 258.979,123.578" id="Fill-172" fill="#9F434C"></path>
            <path d="M300.225,61.741 C294.543,61.741 285.831,50.036 285.461,49.535 L285.863,49.238 C285.952,49.359 294.794,61.241 300.223,61.241 L300.291,61.241 C303.869,61.174 307.881,55.875 310.535,52.369 C312.292,50.05 313.103,49.028 313.661,49.141 L313.567,49.632 C313.227,49.643 312.009,51.251 310.935,52.67 C308.221,56.254 304.121,61.67 300.301,61.741 L300.225,61.741" id="Fill-173" fill="#9F434C"></path>
            <path d="M332.682,85.344 C332.531,85.241 317.407,75.087 307.213,77.168 L307.113,76.678 C317.52,74.564 332.811,84.826 332.963,84.93 L332.682,85.344" id="Fill-174" fill="#9F434C"></path>
            <path d="M294.238,34.402 C294.238,34.402 297.003,38.038 300.296,37.979 C303.59,37.92 306.693,34.949 306.693,34.949 C306.693,34.949 306.298,37.121 306.282,38.002 C306.266,38.884 301.917,42.308 297.157,42.299 C295.18,42.295 294.028,38.678 294.122,38.174 C294.217,37.67 294.603,35.654 294.238,34.402" id="Fill-175" fill="#D17771"></path>
            <path d="M208.808,38.35 C208.808,38.35 263.477,36.231 265.586,38.35 C267.695,40.47 267.695,47.434 265.586,48.202 C263.477,48.97 209.457,49.296 208.808,49.383 C208.16,49.47 207.555,38.397 208.808,38.35" id="Fill-176" fill="#FFFAD2"></path>
            <path d="M218.497,56.313 C218.497,56.313 271.73,54.413 273.784,56.313 C275.838,58.213 275.838,64.456 273.784,65.144 C271.73,65.833 219.129,66.125 218.497,66.203 C217.865,66.281 217.277,56.355 218.497,56.313" id="Fill-177" fill="#FFFAD2"></path>
            <path d="M221.903,88.7550049 L221.277,70.913 C221.277,70.913 218.337,70.341 217.677,70.913 C217.017,71.485 217.022,88.494 217.677,88.549 C218.332,88.605 220.075,88.756 221.903,88.7550049" id="Fill-178" fill="#3F2D49"></path>
            <path d="M229.329,88.7550049 L228.703,70.913 C228.703,70.913 225.764,70.341 225.104,70.913 C224.443,71.485 224.449,88.494 225.104,88.549 C225.758,88.605 227.502,88.756 229.329,88.7550049" id="Fill-179" fill="#3F2D49"></path>
            <path d="M261.798,86.755 L261.4,68.906 C261.4,68.906 258.468,68.296 257.801,68.86 C257.133,69.424 256.922,86.431 257.576,86.495 C258.23,86.559 259.971,86.732 261.798,86.755" id="Fill-180" fill="#3F2D49"></path>
            <path d="M269.225,86.85 L268.826,69.001 C268.826,69.001 265.894,68.391 265.227,68.955 C264.559,69.518 264.348,86.526 265.002,86.59 C265.656,86.653 267.397,86.827 269.225,86.85" id="Fill-181" fill="#3F2D49"></path>
            <path d="M270.974,79.707 C270.974,79.707 257.863,75.329 253.513,74.576 C249.163,73.822 243.535,73.766 245.599,74.739 C247.662,75.711 250.57,76.696 250.57,76.696 C250.57,76.696 245.407,76.094 245.392,76.862 C245.377,77.631 250.459,80.018 250.459,80.018 C250.459,80.018 244.574,77.758 245.051,79.692 C245.529,81.626 256.637,86.168 260.508,88.755 C264.832,91.645 275.98,82.804 270.974,79.707" id="Fill-182" fill="#EEB392"></path>
            <path d="M319.503,214.976 C317.507,214.976 315.257,214.415 315.113,214.379 L315.236,213.895 C316.666,214.257 320.634,214.971 321.804,213.948 L322.132,214.325 C321.571,214.814 320.573,214.976 319.503,214.976" id="Fill-183" fill="#FFFAD2"></path>
            <path d="M320.447,217.604 C318.981,217.604 317.558,217.144 317.468,217.113 L317.624,216.639 C317.657,216.649 320.792,217.661 322.348,216.665 L322.617,217.087 C322.009,217.476 321.223,217.604 320.447,217.604" id="Fill-184" fill="#FFFAD2"></path>
            <path d="M333.539,213.96 C331.543,213.96 329.293,213.399 329.149,213.363 L329.272,212.879 C330.702,213.241 334.671,213.955 335.84,212.933 L336.168,213.31 C335.607,213.799 334.609,213.96 333.539,213.96" id="Fill-185" fill="#FFFAD2"></path>
            <path d="M334.483,216.588 C333.018,216.588 331.594,216.128 331.504,216.098 L331.66,215.623 C331.692,215.634 334.827,216.647 336.384,215.649 L336.653,216.071 C336.045,216.46 335.259,216.588 334.483,216.588" id="Fill-186" fill="#FFFAD2"></path>
            <path d="M342.339,202.066 C341.902,202.049 331.613,201.623 328.186,199.531 L328.446,199.104 C331.764,201.129 342.253,201.562 342.358,201.566 L342.339,202.066" id="Fill-187" fill="#A1674B"></path>
            <path d="M320.229,199.38 C315.287,199.38 308.672,199.244 306.769,199.203 L306.78,198.703 C314.017,198.861 325.037,198.998 325.735,198.729 L325.966,199.172 C325.681,199.329 323.271,199.38 320.229,199.38" id="Fill-188" fill="#A1674B"></path>
            <path d="M208.007,41.754 L207.984,41.255 C208.129,41.248 222.566,40.588 229.162,40.588 C233.862,40.588 249.837,40.423 259.382,40.324 C263.343,40.283 266.151,40.254 266.495,40.254 L266.495,40.754 C266.151,40.754 263.345,40.783 259.387,40.824 C249.841,40.923 233.864,41.088 229.162,41.088 C222.578,41.088 208.152,41.748 208.007,41.754" id="Fill-189" fill="#C6C5A2"></path>
            <path d="M228.375,46.868 C220.178,46.868 208.808,46.592 208.656,46.588 L208.668,46.088 C208.872,46.093 229.059,46.584 234.981,46.255 C240.909,45.926 265.889,43.777 266.141,43.755 L266.184,44.253 C265.932,44.275 240.944,46.425 235.009,46.754 C233.517,46.837 231.124,46.868 228.375,46.868" id="Fill-190" fill="#C6C5A2"></path>
            <path d="M232.584,60.715 C225.714,60.715 217.772,60.426 217.653,60.421 L217.671,59.921 C217.852,59.928 235.713,60.58 240.964,59.923 C246.251,59.262 274.541,58.925 274.826,58.921 L274.832,59.421 C274.547,59.425 246.285,59.762 241.026,60.419 C239.25,60.642 236.053,60.715 232.584,60.715" id="Fill-191" fill="#C6C5A2"></path>
            <path d="M218.497,64.088 L218.494,63.588 C218.771,63.586 246.187,63.412 250.448,62.592 C254.757,61.764 274.176,62.076 274.999,62.088 L274.991,62.588 C274.789,62.584 254.802,62.264 250.542,63.083 C246.236,63.912 219.628,64.081 218.497,64.088" id="Fill-192" fill="#C6C5A2"></path>
            <path d="M253.662,40.338 C253.662,40.338 253.995,56.171 254.162,57.505 C254.329,58.838 257.495,51.671 257.495,51.671 L261.162,57.838 L261.829,40.005 C261.829,40.005 254.162,39.671 253.662,40.338" id="Fill-193" fill="#C44F58"></path>
            <path d="M231.967,209.274 C231.967,209.274 220.516,204.412 215.845,220.576 C211.173,236.741 211.37,243.386 218.734,245.699 C226.097,248.013 227.48,241.983 233.235,244.246 C238.989,246.51 249.14,247.514 250.788,240.559 C252.436,233.605 247.47,201.701 231.967,209.274" id="Fill-194" fill="#C44F58"></path>
            <path d="M239.862,219.024 C239.862,219.024 237.276,243.479 241.421,247.129 C245.566,250.779 262.342,245.236 266.803,252.268 C271.264,259.3 269.931,311.519 269.931,311.519 L199.183,311.519 C199.183,311.519 200.378,251.363 204.051,248.734 C207.723,246.104 224.946,252.433 225.845,242.116 C226.275,237.177 226.741,223.208 226.741,223.208 L239.862,219.024" id="Fill-195" fill="#EEB392"></path>
            <path d="M226.223,237.386 C226.223,237.386 233.678,243.294 239.072,234.202 C239.072,234.202 238.95,239.703 239.127,240.578 C239.304,241.453 233.831,246.198 232.98,246.198 C230.718,246.198 226.037,240.826 226.037,240.826 L226.223,237.386" id="Fill-196" fill="#D17771"></path>
            <path d="M219.823,248.167 C219.823,248.167 224.099,262.639 231.805,263.764 C239.511,264.889 241.402,247.664 243.605,248.167 C245.809,248.669 257.757,242.718 263.107,251.213 C268.457,259.708 267.99,326.228 267.99,326.228 L199.183,326.228 C199.183,326.228 200.508,263.588 202.279,256.294 C204.051,249 215.802,247.194 219.823,248.167" id="Fill-197" fill="#745D65"></path>
            <path d="M242.736,216.584 C242.736,216.584 243.875,242.056 230.89,241.338 C221.958,240.844 218.721,225.23 221.683,218.315 C224.646,211.4 237.899,210.553 242.736,216.584" id="Fill-198" fill="#EEB392"></path>
            <path d="M227.841,229.001 C227.81,229.565 227.43,230.003 226.994,229.979 C226.557,229.955 226.227,229.478 226.258,228.915 C226.289,228.351 226.668,227.913 227.105,227.937 C227.542,227.961 227.871,228.438 227.841,229.001" id="Fill-199" fill="#36283D"></path>
            <path d="M236.566,229.001 C236.535,229.565 236.156,230.003 235.719,229.979 C235.282,229.955 234.953,229.478 234.984,228.915 C235.015,228.351 235.394,227.913 235.831,227.937 C236.268,227.961 236.597,228.438 236.566,229.001" id="Fill-200" fill="#36283D"></path>
            <path d="M240.965,228.721 C240.965,228.721 242.682,224.482 244.488,226.475 C246.294,228.467 243.872,233.536 242.036,233.407 C240.201,233.278 239.997,230.436 240.965,228.721" id="Fill-201" fill="#EEB392"></path>
            <path d="M235.463,223.159 C235.463,223.159 237.366,222.662 238.374,224.927 C238.962,226.249 233.34,223.604 235.463,223.159" id="Fill-202" fill="#C44F58"></path>
            <path d="M228.237,223.437 C228.237,223.437 226.536,222.45 224.959,224.362 C224.038,225.478 230.163,224.435 228.237,223.437" id="Fill-203" fill="#C44F58"></path>
            <path d="M222.233,227.865 C222.233,227.865 221.011,223.459 218.989,225.232 C216.967,227.005 218.795,232.317 220.633,232.398 C222.472,232.48 222.998,229.68 222.233,227.865" id="Fill-204" fill="#EEB392"></path>
            <path d="M232.031,233.38 L231.931,233.376 C231.458,233.357 230.199,233.31 229.884,232.008 L230.371,231.891 C230.563,232.689 231.238,232.842 231.89,232.874 C231.979,232.196 231.799,229.269 231.556,226.608 L232.054,226.563 C232.439,230.77 232.506,233.034 232.252,233.294 L232.031,233.38" id="Fill-205" fill="#D17771"></path>
            <path d="M231.247,235.94 C229.061,235.94 227.381,233.025 227.31,232.899 L227.746,232.653 C227.761,232.681 229.352,235.44 231.247,235.44 L231.297,235.439 C232.364,235.412 233.357,234.496 234.249,232.717 L234.696,232.941 C233.714,234.898 232.575,235.907 231.309,235.939 L231.247,235.94" id="Fill-206" fill="#D17771"></path>
            <path d="M221.328,230.818 L220.828,230.805 C220.914,227.767 219.674,227.349 219.661,227.345 L219.795,226.863 C219.862,226.881 221.426,227.343 221.328,230.818" id="Fill-207" fill="#D17771"></path>
            <path d="M242.11,231.97 L241.612,231.929 C241.894,228.464 243.499,228.175 243.567,228.164 L243.648,228.657 C243.635,228.66 242.357,228.94 242.11,231.97" id="Fill-208" fill="#D17771"></path>
            <path d="M218.845,224.013 C218.845,224.013 220.137,225.69 223.22,224.203 C231,220.451 232.595,211.951 232.595,211.951 C232.595,211.951 233.349,217.826 234.472,219.826 C235.595,221.826 241.067,225.635 242.331,225.293 C243.595,224.951 246.944,217.642 240.394,212.547 C233.845,207.451 232.181,209.435 228.325,211.005 C224.47,212.576 215.72,218.699 218.845,224.013" id="Fill-209" fill="#C44F58"></path>
            <path d="M240.394,204.535 C240.394,208.565 237.127,211.832 233.097,211.832 C229.068,211.832 225.801,208.565 225.801,204.535 C225.801,200.505 229.068,197.239 233.097,197.239 C237.127,197.239 240.394,200.505 240.394,204.535" id="Fill-210" fill="#C44F58"></path>
            <path d="M231.805,263.974 C231.805,263.974 225.321,246.47 221.083,248.722 C216.845,250.974 213.395,263.721 216.872,265.974 C220.348,268.227 231.805,263.974 231.805,263.974" id="Fill-211" fill="#FFFAD2"></path>
            <path d="M233.096,263.974 C233.096,263.974 239.581,246.47 243.819,248.722 C248.057,250.974 251.506,263.721 248.03,265.974 C244.553,268.227 233.096,263.974 233.096,263.974" id="Fill-212" fill="#FFFAD2"></path>
            <path d="M248.03,247.298 C248.03,247.298 246.164,305.149 249.457,311.519 C252.749,317.888 268.347,315.151 270.118,310.14 C271.889,305.129 269.198,259.259 268.001,255.763 C266.803,252.268 262.74,244.274 248.03,247.298" id="Fill-213" fill="#CB8C5D"></path>
            <path d="M220.026,247.298 C220.026,247.298 221.892,305.149 218.599,311.519 C215.307,317.888 199.709,315.151 197.938,310.14 C196.167,305.129 198.858,259.259 200.055,255.763 C201.253,252.268 205.316,244.274 220.026,247.298" id="Fill-214" fill="#CB8C5D"></path>
            <path d="M163.034,333.781 C163.034,333.781 154.464,295.158 178.794,294.447 C203.124,293.737 256.179,337.767 239.131,353.604 C222.084,369.442 164.224,363.942 163.034,333.781" id="Fill-215" fill="#587877"></path>
            <path d="M306.93,333.781 C306.93,333.781 311.723,295.068 287.393,294.358 C263.063,293.647 204.035,337.767 221.083,353.604 C238.13,369.442 305.74,363.942 306.93,333.781" id="Fill-216" fill="#587877"></path>
            <path d="M62.041,360.917 L237.966,360.917 C237.966,360.917 221.122,301.467 169.655,301.874 C118.188,302.281 96.665,350.044 58.298,323.743 C58.298,323.743 48.005,348.433 62.041,360.917" id="Fill-217" fill="#FFFAD2"></path>
            <path d="M399.959,360.917 L224.034,360.917 C224.034,360.917 240.878,301.467 292.345,301.874 C343.812,302.281 365.335,350.044 403.702,323.743 C403.702,323.743 413.995,348.433 399.959,360.917" id="Fill-218" fill="#FFFAD2"></path>
            <path d="M215.969,247.862 C215.969,247.862 215.957,241.259 214.64,237.045 C213.323,232.832 212.531,227.259 213.766,229.178 C215,231.096 216.357,233.85 216.357,233.85 C216.357,233.85 215.085,228.811 215.844,228.695 C216.604,228.579 219.636,233.306 219.636,233.306 C219.636,233.306 217.172,228.764 219.152,228.984 C221.132,229.205 230.89,241.338 225.388,252.47 C223.083,257.133 219.694,252.421 215.969,247.862" id="Fill-219" fill="#E89182"></path>
            <path d="M215.445,244.754 C215.445,244.754 224.934,245.834 227.75,250.937 C230.567,256.04 205.643,304.785 194.244,305.071 C182.845,305.358 176.928,296.358 175.136,294.358 C173.345,292.358 205.545,240.651 215.445,244.754" id="Fill-220" fill="#CB8C5D"></path>
            <path d="M247.084,247.862 C247.084,247.862 247.096,241.259 248.413,237.045 C249.729,232.832 250.521,227.259 249.287,229.178 C248.052,231.096 246.696,233.85 246.696,233.85 C246.696,233.85 247.968,228.811 247.209,228.695 C246.449,228.579 243.417,233.306 243.417,233.306 C243.417,233.306 245.881,228.764 243.901,228.984 C241.921,229.205 232.249,243.441 237.665,252.47 C240.341,256.93 243.359,252.421 247.084,247.862" id="Fill-221" fill="#E89182"></path>
            <path d="M247.084,244.754 C247.084,244.754 237.595,245.834 234.779,250.937 C231.962,256.04 256.886,304.785 268.285,305.071 C279.684,305.358 285.601,296.358 287.393,294.358 C289.184,292.358 256.984,240.651 247.084,244.754" id="Fill-222" fill="#CB8C5D"></path>
            <path d="M212.578,247.298 C212.578,247.298 207.855,288.078 204.562,294.447 C201.269,300.817 176.907,299.369 175.136,294.358 C173.365,289.346 191.41,259.259 192.607,255.763 C193.805,252.268 197.868,244.274 212.578,247.298" id="Fill-223" fill="#CB8C5D"></path>
            <path d="M253.885,247.298 C253.885,247.298 258.608,288.078 261.901,294.447 C265.193,300.817 285.622,299.369 287.393,294.358 C289.164,289.346 271.913,259.541 270.716,256.045 C269.518,252.55 267.095,244.522 253.885,247.298" id="Fill-224" fill="#CB8C5D"></path>
            <path d="M280.864,283.648 C273.046,264.835 258.254,248.531 253.831,247.542 L253.94,247.054 C259.032,248.192 273.938,265.678 281.325,283.457 L280.864,283.648" id="Fill-225" fill="#A1674B"></path>
            <path d="M257.395,297.05 C257.312,296.91 249.073,283.046 247.318,281.097 L247.689,280.763 C249.477,282.748 257.485,296.222 257.825,296.794 L257.395,297.05" id="Fill-226" fill="#A1674B"></path>
            <path d="M214.757,234.468 L214.582,233.999 C214.764,233.931 219.058,232.352 220.727,233.186 L220.502,233.633 C219.278,233.019 215.94,234.026 214.757,234.468" id="Fill-227" fill="#D17771"></path>
            <path d="M226.192,258.739 C223.574,254.624 207.412,247.884 207.249,247.815 L207.44,247.354 C208.112,247.633 223.912,254.224 226.614,258.472 L226.192,258.739" id="Fill-228" fill="#A1674B"></path>
            <path d="M180.73,283.218 L180.271,283.021 C184.395,273.379 202.971,252.38 203.158,252.169 L203.532,252.501 C203.345,252.711 184.823,273.65 180.73,283.218" id="Fill-229" fill="#A1674B"></path>
            <path d="M203.531,298.855 L203.158,298.523 C203.298,298.366 217.165,282.745 219.487,272.604 L219.974,272.715 C217.623,282.982 203.672,298.698 203.531,298.855" id="Fill-230" fill="#A1674B"></path>
            <polygon id="Fill-231" fill="#D17771" points="62.041 378.752 402.622 378.752 402.622 360.917 62.041 360.917"></polygon>
            <path d="M191.09,303.584 C186.097,303.584 180.06,301.782 176.746,294.203 C176.66,294.006 176.748,293.874 176.79,293.826 C177.041,293.544 177.674,293.715 180.321,294.495 C184.966,295.864 193.611,298.413 203.345,298.439 L203.344,298.939 C193.538,298.913 184.849,296.351 180.18,294.975 C178.897,294.596 177.761,294.262 177.293,294.202 C183.445,307.874 198.932,301.704 199.088,301.641 L199.278,302.104 C199.202,302.135 195.565,303.584 191.09,303.584" id="Fill-232" fill="#A1674B"></path>
            <path d="M236.164,257.365 L235.912,256.934 C236.449,256.618 249.136,249.232 253.911,249.692 L253.86,250.19 C249.267,249.733 236.294,257.289 236.164,257.365" id="Fill-233" fill="#A1674B"></path>
            <path d="M269.108,300.229 C264.5,300.229 260.997,298.919 260.921,298.89 L261.101,298.423 C261.261,298.484 277.133,304.411 285.616,290.501 L286.043,290.761 C281.358,298.445 274.482,300.229 269.108,300.229" id="Fill-234" fill="#A1674B"></path>
            <path d="M226.953,225.543 C225.256,225.543 223.875,226.924 223.875,228.621 C223.875,230.318 225.256,231.699 226.953,231.699 C228.65,231.699 230.031,230.318 230.031,228.621 C230.031,226.924 228.65,225.543 226.953,225.543 Z M226.953,232.199 C224.98,232.199 223.375,230.594 223.375,228.621 C223.375,226.648 224.98,225.043 226.953,225.043 C228.925,225.043 230.531,226.648 230.531,228.621 C230.531,230.594 228.925,232.199 226.953,232.199 L226.953,232.199 Z" id="Fill-235" fill="#FFFAD2"></path>
            <path d="M236.038,225.543 C234.34,225.543 232.96,226.924 232.96,228.621 C232.96,230.318 234.34,231.699 236.038,231.699 C237.734,231.699 239.115,230.318 239.115,228.621 C239.115,226.924 237.734,225.543 236.038,225.543 Z M236.038,232.199 C234.065,232.199 232.46,230.594 232.46,228.621 C232.46,226.648 234.065,225.043 236.038,225.043 C238.01,225.043 239.615,226.648 239.615,228.621 C239.615,230.594 238.01,232.199 236.038,232.199 L236.038,232.199 Z" id="Fill-236" fill="#FFFAD2"></path>
            <polygon id="Fill-237" fill="#FFFAD2" points="230.127 228.468 233.096 228.468 233.096 227.968 230.127 227.968"></polygon>
            <polyline id="Fill-238" fill="#FFFAD2" points="223.795 227.438 220.485 225.257 220.761 224.839 224.071 227.021 223.795 227.438"></polyline>
            <polyline id="Fill-239" fill="#FFFAD2" points="239.454 227.463 239.276 226.996 242.644 225.709 242.822 226.176 239.454 227.463"></polyline>
            <path d="M227.616,361.021 C214.131,331.938 201.685,318.325 185.997,315.503 C170.928,312.79 153.551,319.998 129.501,329.967 C123.718,332.363 117.739,334.842 111.27,337.401 C86.26,347.295 69.439,348.889 61.272,342.137 C54.952,336.909 56.487,328.388 56.503,328.302 L56.994,328.396 C56.979,328.478 55.501,336.72 61.596,341.755 C67.107,346.308 80.166,349.167 111.086,336.937 C117.551,334.379 123.529,331.901 129.309,329.505 C153.44,319.503 170.875,312.277 186.085,315.012 C201.953,317.865 214.508,331.563 228.069,360.811 L227.616,361.021" id="Fill-240" fill="#C6C5A2"></path>
            <path d="M219.531,361.651 C219.333,361.389 199.348,335.381 167.198,338.049 C156.374,338.944 142.372,342.891 127.548,347.068 C97.413,355.563 66.251,364.344 55.268,349.703 L55.668,349.402 C66.445,363.771 97.439,355.036 127.413,346.587 C142.26,342.402 156.285,338.45 167.157,337.551 C199.593,334.861 219.731,361.086 219.93,361.351 L219.531,361.651" id="Fill-241" fill="#C6C5A2"></path>
            <path d="M125.264,361.15 L125.091,360.682 C141.28,354.706 164.555,348.494 183.486,352.828 C194.856,355.432 199.196,360.54 199.376,360.757 L198.991,361.076 C198.948,361.023 194.548,355.86 183.32,353.303 C172.94,350.939 154.441,350.38 125.264,361.15" id="Fill-242" fill="#C6C5A2"></path>
            <path d="M234.699,361.021 L234.246,360.811 C247.806,331.563 260.362,317.865 276.23,315.012 C291.434,312.272 308.876,319.502 333.005,329.505 C338.786,331.901 344.763,334.379 351.228,336.937 C368.294,343.688 390.733,350.004 400.719,341.755 C406.813,336.72 405.335,328.478 405.32,328.396 L405.812,328.302 C405.828,328.388 407.363,336.909 401.042,342.137 C392.876,348.89 376.053,347.295 351.044,337.401 C344.575,334.842 338.596,332.364 332.814,329.967 C308.762,319.997 291.382,312.794 276.318,315.503 C260.63,318.325 248.183,331.938 234.699,361.021" id="Fill-243" fill="#C6C5A2"></path>
            <path d="M242.783,361.651 L242.384,361.351 C242.584,361.086 262.723,334.864 295.157,337.551 C306.03,338.45 320.054,342.402 334.902,346.588 C364.876,355.035 395.871,363.771 406.646,349.402 L407.046,349.703 C396.062,364.345 364.902,355.563 334.766,347.068 C319.942,342.891 305.941,338.944 295.116,338.049 C262.96,335.393 242.981,361.389 242.783,361.651" id="Fill-244" fill="#C6C5A2"></path>
            <path d="M337.049,361.15 C320.924,355.198 297.753,349.007 278.94,353.315 C267.734,355.882 263.367,361.023 263.324,361.075 L262.939,360.757 C263.118,360.54 267.459,355.432 278.829,352.828 C289.277,350.438 307.893,349.854 337.223,360.682 L337.049,361.15" id="Fill-245" fill="#C6C5A2"></path>
            <path d="M222.32,224.827 L222.236,224.335 C222.678,224.259 233.051,222.36 232.335,211.101 L232.834,211.069 C233.223,217.188 230.341,220.605 227.854,222.396 C225.169,224.328 222.435,224.808 222.32,224.827" id="Fill-246" fill="#C44F58"></path>
            <path d="M227.891,209.511 C226.234,208.96 225.263,208.065 225.005,206.85 C224.319,203.621 228.977,199.331 229.176,199.15 L229.512,199.52 C229.466,199.562 224.867,203.797 225.494,206.747 C225.712,207.775 226.573,208.546 228.049,209.036 L227.891,209.511" id="Fill-247" fill="#C44F58"></path>
            <path d="M237.395,210.71 L237.278,210.224 C237.304,210.218 239.873,209.576 240.611,207.58 C241.132,206.172 240.645,204.415 239.162,202.356 L239.568,202.064 C241.155,204.268 241.664,206.183 241.079,207.756 C240.245,210.002 237.511,210.683 237.395,210.71" id="Fill-248" fill="#C44F58"></path>
            <path d="M213.762,241.492 C213.73,241.443 210.547,236.614 211.569,230.769 C212.096,227.754 213.358,226.309 214.372,225.148 C215.469,223.893 216.261,222.985 215.604,220.644 C214.812,217.822 217.044,213.461 219.565,211.038 C221.444,209.232 223.354,208.521 224.941,209.036 L224.787,209.511 C223.383,209.059 221.652,209.727 219.912,211.398 C217.14,214.063 215.423,218.149 216.085,220.509 C216.816,223.111 215.903,224.155 214.749,225.477 C213.775,226.591 212.564,227.978 212.061,230.854 C211.075,236.497 214.147,241.167 214.177,241.213 L213.762,241.492" id="Fill-249" fill="#C44F58"></path>
            <path d="M223.99,221.828 L223.876,221.342 C228.362,220.302 230.155,216.274 230.327,213.142 C230.405,211.721 230.091,211.009 229.907,210.944 C229.839,210.923 229.71,211.003 229.547,211.23 C227.676,213.851 219.359,220.854 219.005,221.151 L218.684,220.769 C218.77,220.696 227.305,213.509 229.141,210.939 C229.515,210.416 229.851,210.396 230.073,210.472 C230.725,210.701 230.889,212.016 230.826,213.169 C230.644,216.475 228.745,220.726 223.99,221.828" id="Fill-250" fill="#953F47"></path>
            <path d="M232.54,207.518 C230.571,205.69 231.335,202.297 231.369,202.153 L231.855,202.267 C231.848,202.299 231.125,205.522 232.879,207.152 L232.54,207.518" id="Fill-251" fill="#953F47"></path>
            <path d="M233.895,207.604 C233.697,207.604 233.568,207.584 233.551,207.582 L233.2,207.525 L233.373,207.214 C234.957,204.354 235.523,200.954 235.528,200.92 L236.022,201 C236,201.137 235.482,204.251 234.001,207.1 C234.368,207.084 234.942,206.983 235.419,206.561 C236.058,205.995 236.361,205.019 236.318,203.657 L236.818,203.642 C236.866,205.162 236.504,206.272 235.745,206.94 C235.097,207.51 234.33,207.604 233.895,207.604" id="Fill-252" fill="#953F47"></path>
            <path d="M241.655,222.226 C241.427,221.894 236.085,214.048 234.853,211.184 L235.312,210.986 C236.526,213.807 242.012,221.863 242.067,221.944 L241.655,222.226" id="Fill-253" fill="#953F47"></path>
            <path d="M245.469,226.962 C245.103,219.493 240.248,213.302 240.199,213.24 L240.589,212.93 C240.64,212.992 245.594,219.311 245.969,226.937 L245.469,226.962" id="Fill-254" fill="#953F47"></path>
            <path d="M249.748,227.231 C249.698,221.196 248,217.586 246.585,215.62 C245.055,213.496 243.517,212.781 243.502,212.774 L243.708,212.318 C243.97,212.437 250.15,215.349 250.248,227.228 L249.748,227.231" id="Fill-255" fill="#C44F58"></path>
            <path d="M247.3,234.38 C246.174,232.818 242.128,233.642 242.087,233.651 L241.986,233.161 C242.165,233.126 246.392,232.266 247.707,234.087 L247.3,234.38" id="Fill-256" fill="#D17771"></path>
        </g>
    </g>
</svg>